<?xml version="1.0" standalone="no"?>
<!DOCTYPE svg PUBLIC "-//W3C//DTD SVG 20010904//EN"
 "http://www.w3.org/TR/2001/REC-SVG-20010904/DTD/svg10.dtd">
<svg version="1.0" xmlns="http://www.w3.org/2000/svg"
 width="914.000000pt" height="914.000000pt" viewBox="0 0 914.000000 914.000000"
 preserveAspectRatio="xMidYMid meet">
<metadata>
Created by potrace 1.11, written by Peter Selinger 2001-2013
</metadata>
<g transform="translate(0.000000,914.000000) scale(0.100000,-0.100000)"
fill="#000000" stroke="none">
<path d="M4370 9133 c-455 -25 -838 -96 -1250 -233 -428 -142 -792 -328 -1210
-617 -229 -158 -535 -435 -774 -702 -118 -132 -378 -479 -429 -573 -7 -13 -25
-43 -41 -67 -42 -65 -155 -273 -205 -376 -147 -303 -255 -606 -337 -945 -38
-159 -86 -451 -99 -605 -3 -38 -8 -92 -11 -120 -10 -83 -11 -472 -2 -610 68
-1043 470 -1999 1166 -2775 146 -163 395 -397 542 -511 24 -18 51 -40 59 -47
29 -27 280 -201 381 -264 225 -140 475 -266 730 -368 230 -92 577 -193 805
-236 50 -9 99 -18 110 -20 19 -4 211 -30 287 -39 223 -27 725 -27 943 -1 17 2
57 7 90 10 133 15 418 69 569 107 1113 284 2060 960 2699 1930 364 551 617
1228 701 1874 31 243 40 375 41 620 1 715 -157 1394 -472 2025 -123 246 -180
345 -312 540 -440 650 -1037 1173 -1738 1524 -403 201 -871 354 -1288 420
-147 24 -245 35 -425 52 -69 6 -453 11 -530 7z"/>
</g>
</svg>
